<?xml version="1.0" encoding="utf-8"?>
<!-- Generator: Adobe Illustrator 19.0.0, SVG Export Plug-In . SVG Version: 6.00 Build 0)  -->
<svg version="1.1" id="Layer_1" xmlns="http://www.w3.org/2000/svg" xmlns:xlink="http://www.w3.org/1999/xlink" x="0px" y="0px"
	 viewBox="0 0 500 500" style="enable-background:new 0 0 500 500;" xml:space="preserve">
<path id="XMLID_17_" d="M476.6,179.1c-6.2,29.5-30.3,49.8-48.1,72.6c-6.8,8.6-5,7.2-12.6,15.3c-0.9,0.9-7.1,8.8-8.5,8.1
	c-1.1-0.6-1.9-4.9-1.2-6.1c4.4-9.2,7.5-18.7,11.1-28.2c1-2.5,5.8-9.6,3.4-12c-0.8-0.8-2-1.1-3.1-1.3c-4.6-0.7-9.2,0.4-13.8,0.7
	c-9,0.6-17.9,1.1-26.9,1.7c-17.9,1.1-35.9,2.2-53.8,3.5c-28.3,2-56.6,4.3-84.8,7.5c-14.2,1.6-29.7,14.8-39.4,26.8
	c-15.4,19-24.6,42.9-40.1,61.8c-8.4,10.3-25,20.7-36.6,19.4c-8.6-0.9-17.6-19.8-21.9-32.2c-5.5-15.8-5.2-33.6-9.8-49.8
	c-6.3-21.9-18.2-25.7-35.5-11.1c-10.8,9.1-18.9,21.4-30.3,34.8c-7.8-35,29.4-89.5,58-88.7c9.1,0.3,22.3,12.1,25.8,21.5
	c6.9,18.8,7.7,39.8,12.2,59.6c5.3,22.8,17.5,26.7,33,9c14.5-16.5,26.7-35.2,38.3-53.9c20-32.4,46.7-47.2,86.1-47.8
	C343.4,189.6,409,183.3,476.6,179.1z"/>
</svg>
